<svg xmlns="http://www.w3.org/2000/svg" xmlns:xlink="http://www.w3.org/1999/xlink" width="1080" zoomAndPan="magnify" viewBox="0 0 810 1012.49997" height="1350" preserveAspectRatio="xMidYMid meet" version="1.0"><defs><clipPath id="fc0509c5e3"><path d="M 91 266 L 719 266 L 719 951.28125 L 91 951.28125 Z M 91 266 " clip-rule="nonzero"/></clipPath><clipPath id="1ba607a50d"><path d="M 44 173 L 765.804688 173 L 765.804688 230 L 44 230 Z M 44 173 " clip-rule="nonzero"/></clipPath><clipPath id="89c207f4e9"><path d="M 314 80.960938 L 496 80.960938 L 496 137 L 314 137 Z M 314 80.960938 " clip-rule="nonzero"/></clipPath></defs><g clip-path="url(#fc0509c5e3)"><path fill="#ffffff" d="M 133.613281 951.046875 L 676.386719 951.046875 L 718.535156 266.085938 L 91.460938 266.085938 Z M 553.097656 340.132812 C 553.097656 329.910156 561.386719 321.621094 571.609375 321.621094 C 581.832031 321.621094 590.125 329.910156 590.125 340.132812 L 590.125 876.996094 C 590.125 887.21875 581.832031 895.507812 571.609375 895.507812 C 561.386719 895.507812 553.097656 887.21875 553.097656 876.996094 Z M 442.023438 340.132812 C 442.023438 329.910156 450.3125 321.621094 460.535156 321.621094 C 470.757812 321.621094 479.046875 329.910156 479.046875 340.132812 L 479.046875 876.996094 C 479.046875 887.21875 470.757812 895.507812 460.535156 895.507812 C 450.3125 895.507812 442.023438 887.21875 442.023438 876.996094 Z M 330.949219 340.132812 C 330.949219 329.910156 339.238281 321.621094 349.460938 321.621094 C 359.683594 321.621094 367.972656 329.910156 367.972656 340.132812 L 367.972656 876.996094 C 367.972656 887.21875 359.683594 895.507812 349.460938 895.507812 C 339.238281 895.507812 330.949219 887.21875 330.949219 876.996094 Z M 219.871094 340.132812 C 219.871094 329.910156 228.164062 321.621094 238.386719 321.621094 C 248.609375 321.621094 256.898438 329.910156 256.898438 340.132812 L 256.898438 876.996094 C 256.898438 887.21875 248.609375 895.507812 238.386719 895.507812 C 228.164062 895.507812 219.871094 887.21875 219.871094 876.996094 Z M 219.871094 340.132812 " fill-opacity="1" fill-rule="nonzero"/></g><g clip-path="url(#1ba607a50d)"><path fill="#ffffff" d="M 44.003906 173.523438 L 44.003906 229.058594 C 67.386719 229.058594 734.625 229.058594 765.988281 229.058594 L 765.988281 173.523438 C 727.195312 173.523438 59.402344 173.523438 44.003906 173.523438 Z M 44.003906 173.523438 " fill-opacity="1" fill-rule="nonzero"/></g><g clip-path="url(#89c207f4e9)"><path fill="#ffffff" d="M 423.511719 80.960938 L 386.484375 80.960938 C 352.042969 80.960938 323.019531 104.59375 314.777344 136.496094 L 495.21875 136.496094 C 486.976562 104.59375 457.953125 80.960938 423.511719 80.960938 Z M 423.511719 80.960938 " fill-opacity="1" fill-rule="nonzero"/></g></svg>